<?xml version="1.0" encoding="UTF-8" standalone="no"?>
<!DOCTYPE svg PUBLIC "-//W3C//DTD SVG 1.1//EN"
 "http://www.w3.org/Graphics/SVG/1.1/DTD/svg11.dtd">
<!-- Generated by graphviz version 2.38.0 (20140413.2041)
 -->
<!-- Title: G Pages: 1 -->
<svg width="389pt" height="547pt"
 viewBox="0.00 0.00 292.00 410.00" xmlns="http://www.w3.org/2000/svg" xmlns:xlink="http://www.w3.org/1999/xlink">
<g id="graph0" class="graph" transform="scale(1.33333 1.33333) rotate(0) translate(4 406)">
<title>G</title>
<polygon fill="white" stroke="none" points="-4,4 -4,-406 288,-406 288,4 -4,4"/>
<!-- 2672432329280 -->
<g id="node1" class="node"><title>2672432329280</title>
<polygon fill="none" stroke="black" points="0,-365.5 0,-401.5 133,-401.5 133,-365.5 0,-365.5"/>
<text text-anchor="middle" x="66.5" y="-379.8" font-family="Times New Roman,serif" font-size="14.00">input_21: InputLayer</text>
</g>
<!-- 2672432329504 -->
<g id="node3" class="node"><title>2672432329504</title>
<polygon fill="none" stroke="black" points="16,-292.5 16,-328.5 127,-328.5 127,-292.5 16,-292.5"/>
<text text-anchor="middle" x="71.5" y="-306.8" font-family="Times New Roman,serif" font-size="14.00">dense_81: Dense</text>
</g>
<!-- 2672432329280&#45;&gt;2672432329504 -->
<g id="edge1" class="edge"><title>2672432329280&#45;&gt;2672432329504</title>
<path fill="none" stroke="black" d="M67.7104,-365.313C68.2754,-357.289 68.9614,-347.547 69.5937,-338.569"/>
<polygon fill="black" stroke="black" points="73.0896,-338.75 70.3008,-328.529 66.1069,-338.258 73.0896,-338.75"/>
</g>
<!-- 2672429569024 -->
<g id="node2" class="node"><title>2672429569024</title>
<polygon fill="none" stroke="black" points="151,-365.5 151,-401.5 284,-401.5 284,-365.5 151,-365.5"/>
<text text-anchor="middle" x="217.5" y="-379.8" font-family="Times New Roman,serif" font-size="14.00">input_22: InputLayer</text>
</g>
<!-- 2672432386792 -->
<g id="node4" class="node"><title>2672432386792</title>
<polygon fill="none" stroke="black" points="156,-292.5 156,-328.5 267,-328.5 267,-292.5 156,-292.5"/>
<text text-anchor="middle" x="211.5" y="-306.8" font-family="Times New Roman,serif" font-size="14.00">dense_84: Dense</text>
</g>
<!-- 2672429569024&#45;&gt;2672432386792 -->
<g id="edge2" class="edge"><title>2672429569024&#45;&gt;2672432386792</title>
<path fill="none" stroke="black" d="M216.048,-365.313C215.37,-357.289 214.546,-347.547 213.788,-338.569"/>
<polygon fill="black" stroke="black" points="217.269,-338.199 212.939,-328.529 210.294,-338.788 217.269,-338.199"/>
</g>
<!-- 2672432330624 -->
<g id="node5" class="node"><title>2672432330624</title>
<polygon fill="none" stroke="black" points="21,-219.5 21,-255.5 132,-255.5 132,-219.5 21,-219.5"/>
<text text-anchor="middle" x="76.5" y="-233.8" font-family="Times New Roman,serif" font-size="14.00">dense_82: Dense</text>
</g>
<!-- 2672432329504&#45;&gt;2672432330624 -->
<g id="edge3" class="edge"><title>2672432329504&#45;&gt;2672432330624</title>
<path fill="none" stroke="black" d="M72.7104,-292.313C73.2754,-284.289 73.9614,-274.547 74.5937,-265.569"/>
<polygon fill="black" stroke="black" points="78.0896,-265.75 75.3008,-255.529 71.1069,-265.258 78.0896,-265.75"/>
</g>
<!-- 2672430094768 -->
<g id="node6" class="node"><title>2672430094768</title>
<polygon fill="none" stroke="black" points="155,-219.5 155,-255.5 266,-255.5 266,-219.5 155,-219.5"/>
<text text-anchor="middle" x="210.5" y="-233.8" font-family="Times New Roman,serif" font-size="14.00">dense_85: Dense</text>
</g>
<!-- 2672432386792&#45;&gt;2672430094768 -->
<g id="edge4" class="edge"><title>2672432386792&#45;&gt;2672430094768</title>
<path fill="none" stroke="black" d="M211.258,-292.313C211.145,-284.289 211.008,-274.547 210.881,-265.569"/>
<polygon fill="black" stroke="black" points="214.38,-265.479 210.74,-255.529 207.381,-265.577 214.38,-265.479"/>
</g>
<!-- 2672432331800 -->
<g id="node7" class="node"><title>2672432331800</title>
<polygon fill="none" stroke="black" points="22,-146.5 22,-182.5 133,-182.5 133,-146.5 22,-146.5"/>
<text text-anchor="middle" x="77.5" y="-160.8" font-family="Times New Roman,serif" font-size="14.00">dense_83: Dense</text>
</g>
<!-- 2672432330624&#45;&gt;2672432331800 -->
<g id="edge5" class="edge"><title>2672432330624&#45;&gt;2672432331800</title>
<path fill="none" stroke="black" d="M76.7421,-219.313C76.8551,-211.289 76.9923,-201.547 77.1187,-192.569"/>
<polygon fill="black" stroke="black" points="80.6189,-192.577 77.2602,-182.529 73.6196,-192.479 80.6189,-192.577"/>
</g>
<!-- 2672432388808 -->
<g id="node8" class="node"><title>2672432388808</title>
<polygon fill="none" stroke="black" points="152,-146.5 152,-182.5 263,-182.5 263,-146.5 152,-146.5"/>
<text text-anchor="middle" x="207.5" y="-160.8" font-family="Times New Roman,serif" font-size="14.00">dense_86: Dense</text>
</g>
<!-- 2672430094768&#45;&gt;2672432388808 -->
<g id="edge6" class="edge"><title>2672430094768&#45;&gt;2672432388808</title>
<path fill="none" stroke="black" d="M209.774,-219.313C209.435,-211.289 209.023,-201.547 208.644,-192.569"/>
<polygon fill="black" stroke="black" points="212.139,-192.372 208.22,-182.529 205.145,-192.668 212.139,-192.372"/>
</g>
<!-- 2672432430328 -->
<g id="node9" class="node"><title>2672432430328</title>
<polygon fill="none" stroke="black" points="53,-73.5 53,-109.5 232,-109.5 232,-73.5 53,-73.5"/>
<text text-anchor="middle" x="142.5" y="-87.8" font-family="Times New Roman,serif" font-size="14.00">concatenate_11: Concatenate</text>
</g>
<!-- 2672432331800&#45;&gt;2672432430328 -->
<g id="edge7" class="edge"><title>2672432331800&#45;&gt;2672432430328</title>
<path fill="none" stroke="black" d="M93.2347,-146.313C101.299,-137.505 111.259,-126.625 120.108,-116.958"/>
<polygon fill="black" stroke="black" points="122.739,-119.268 126.91,-109.529 117.576,-114.541 122.739,-119.268"/>
</g>
<!-- 2672432388808&#45;&gt;2672432430328 -->
<g id="edge8" class="edge"><title>2672432388808&#45;&gt;2672432430328</title>
<path fill="none" stroke="black" d="M191.765,-146.313C183.701,-137.505 173.741,-126.625 164.892,-116.958"/>
<polygon fill="black" stroke="black" points="167.424,-114.541 158.09,-109.529 162.261,-119.268 167.424,-114.541"/>
</g>
<!-- 2672432429488 -->
<g id="node10" class="node"><title>2672432429488</title>
<polygon fill="none" stroke="black" points="87,-0.5 87,-36.5 198,-36.5 198,-0.5 87,-0.5"/>
<text text-anchor="middle" x="142.5" y="-14.8" font-family="Times New Roman,serif" font-size="14.00">dense_87: Dense</text>
</g>
<!-- 2672432430328&#45;&gt;2672432429488 -->
<g id="edge9" class="edge"><title>2672432430328&#45;&gt;2672432429488</title>
<path fill="none" stroke="black" d="M142.5,-73.3129C142.5,-65.2895 142.5,-55.5475 142.5,-46.5691"/>
<polygon fill="black" stroke="black" points="146,-46.5288 142.5,-36.5288 139,-46.5289 146,-46.5288"/>
</g>
</g>
</svg>
